<svg xmlns="http://www.w3.org/2000/svg" width="1150" height="34"><path fill="#FFF" d="M1121.252 0c-14.375 0-14.375 14-28.749 14s-14.374-14-28.748-14-14.374 14-28.748 14l-28.75-14-28.748 14s-14.374-14-28.748-14-14.374 14-28.749 14-14.375-14-28.749-14-14.374 14-28.749 14-14.375-14-28.75-14c-14.371 0-14.371 14-28.743 14l-28.75-14-28.744 14c-14.374 0-14.374-14-28.747-14s-14.373 14-28.747 14l-28.746-14-28.748 14c-14.375 0-14.375-14-28.751-14l-28.748 14s-14.374-14-28.748-14-14.374 14-28.748 14-14.374-14-28.748-14l-28.75 14c-14.376 0-14.376-14-28.753-14l-28.75 14s-14.375-14-28.751-14l-28.75 14s-14.376-14-28.751-14-14.375 14-28.751 14c-14.376 0-14.376-14-28.753-14-14.374 0-14.374 14-28.747 14l-28.75-14s-14.375 14-28.751 14l-28.754-14s-14.377 14-28.755 14l-28.756-14s-14.378 14-28.756 14c-14.379 0-14.379-14-28.759-14s-14.379 14-28.759 14v20h1150v-20l-28.748-14z"/></svg>