<svg xmlns="http://www.w3.org/2000/svg" width="34" height="34" viewBox="0 0 34 34"><g ><path d="M.286 14.069c-.382 2.073-.384 4.211.008 6.301l4.121-3.21-4.129-3.091zM24.403 1.585c-4.783-2.208-10.444-2.144-15.254.407l7.513 5.625 7.741-6.032zM33.901 13.175l-4.811 3.748 4.936 3.695c.496-2.445.463-4.988-.125-7.443zM9.209 32.414c4.844 2.534 10.724 2.65 15.73.113l-8.096-6.062-7.634 5.949zM7.914 14.433l-6.233-4.666c-.32.669-.595 1.356-.825 2.056l5.308 3.974 1.75-1.364zM18.593 25.102l8.336 6.242c.277-.191.551-.391.82-.601.318-.248.625-.505.92-.771l-8.326-6.234-1.75 1.364zM11.413 11.707l-7.411-5.549c-.462.551-.885 1.127-1.269 1.723l6.931 5.189 1.749-1.363zM22.093 22.375l8.092 6.059c.471-.544.904-1.112 1.297-1.701l-7.639-5.721-1.75 1.363zM14.913 8.98l-7.717-5.777-.573.426c-.396.309-.774.632-1.136.968l7.676 5.747 1.75-1.364zM25.592 19.649l6.972 5.221c.33-.662.615-1.341.855-2.033l-6.077-4.55-1.75 1.362zM26.448 2.706l-25.568 19.92c.233.698.513 1.386.839 2.059l26.52-20.663c-.572-.481-1.171-.92-1.791-1.316zM30.743 6.624c-.301-.386-.614-.754-.939-1.106l-27.018 21.049c.262.402.542.797.843 1.183l.436.534 27.09-21.108-.412-.552zM32.298 8.999l-26.746 20.839c.544.501 1.114.962 1.708 1.382l25.962-20.228c-.263-.678-.571-1.344-.924-1.993z"/></g></svg>
